<?xml version="1.0" encoding="UTF-8"?>
<svg xmlns="http://www.w3.org/2000/svg" version="1.1" viewBox="0 0 512 512">
  <defs>
    <style>
      .eagle { fill: #006a31; stroke-width: 0px; }
      @media (prefers-color-scheme: dark) { .eagle { fill: #FFF } }
    </style>
  </defs>
  <path class="eagle" d="M176.6,126.7h0M465.9,432c-3.8-1.3-10.9,1.6-10.9,1.6-1.6-9.9-12.8-23.4-12.8-23.4,0,0,22.1,20.8,23.4,22.1,0-.6,7-15.4-6.7-28.5-20.8-19.5-60.5-56-60.5-55.7,2.9,9,18.9,37.8,10.2,91.2l20.5,3.8,2.6,4.2s23.4,3.2,27.2,6.7c0,0,8,5.8-.6,13.4,0,0,13.1-2.6,20.8-9.9,0,0,6.7-5.8-1.3-14.1l-11.8-11.2M466,432.2h0M383.8,452.4l16.6,30.7s17.3-7.4,23.7,1.3c5.4,7,1,15.4-4.5,22.4,0,.3,1.9-10.6-6.7-11.8-10.2-1.6-23.7,5.1-29.8,17.6,0,0-5.8-9.6,1-17.9,0,0-36.2-21.4-65.3-62.1l-29.1-12.8s-45.1,14.4-54.1,17c-22.7,6.4-29.1,2.2-36.5-4.8-7-6.7-17.3-17-17.3-17,6.4,4.2,14.4,5.4,21.8,3.8l55.4-12.2-8.3-3.8s-52.8,9-61.8,9.6-13.1-3.5-18.2-8c0,0-18.9-18.2-18.6-18.2,11.2,6.1,13.4,5.4,21.8,5.1l41.9-3.2-9.6-4.2h-48.3c-11.5,0-19.5-9.9-22.4-12.8l-17.6-16.3s6.4,5.8,25.6,5.8h130.6c-100.8-60.2-223-133.4-227.8-136.3-8.3-5.1-27.5-14.7-20.8-28.8l16-34.2s-.6,13.8,9,19.8c8,5.1,226.6,150.7,226.6,150.7l-1.9-9.6S50.2,163.8,42.2,158s-27.8-17.9-19.8-36.8l16.3-33.9s-1.3,13.8,9.9,22.4l226.2,174.1v-7.7S46.7,91.5,39.7,86.1s-17-16-10.6-33L53.4,0s-5.4,17.6,8.6,31.4l293.4,274.9s63,53.8,50.6,132.8l-22.7,13.1M398.3,347.9c15-78.4-44.2-138.6-58.9-155.8-3.8-4.5-140.2-158.1-140.2-158.1-12.2-13.8-7.4-24.3-7.4-24.3l-16,35.8c-3.5,9.9,3.2,16.3,8,21.8,4.8,5.5,148.4,155.7,148.4,155.7l-1,8.3L195.5,95.3c-11.8-12.2-7.4-21.1-7.4-21.1l-14.7,33c-3.2,10.2,7,17,14.4,24,7.7,7.4,158.4,149.1,170.9,160.3,26.2,24,39.4,56,39.4,56"/>
</svg>
